M48
; DRILL file {KiCad (6.0.5)} date Tue Apr 11 14:56:15 2023
; FORMAT={-:-/ absolute / inch / decimal}
; #@! TF.CreationDate,2023-04-11T14:56:15-04:00
; #@! TF.GenerationSoftware,Kicad,Pcbnew,(6.0.5)
; #@! TF.FileFunction,Plated,1,2,PTH
FMAT,2
INCH
; #@! TA.AperFunction,Plated,PTH,ComponentDrill
T1C0.0300
; #@! TA.AperFunction,Plated,PTH,ComponentDrill
T2C0.0315
; #@! TA.AperFunction,Plated,PTH,ComponentDrill
T3C0.0394
%
G90
G05
T1
X3.7Y-3.8
X3.7Y-3.9
X3.7Y-4.0
X3.9Y-4.2
X3.9Y-4.3
X3.9Y-4.4
X4.1Y-3.8
X4.1Y-3.9
X4.1Y-4.0
X4.3Y-4.2
X4.3Y-4.3
X4.3Y-4.4
X5.6Y-3.8
X5.6Y-3.9
X5.6Y-4.0
X5.7Y-4.2
X5.7Y-4.3
X5.7Y-4.4
X6.0Y-3.8
X6.0Y-3.9
X6.0Y-4.0
X6.1Y-4.2
X6.1Y-4.3
X6.1Y-4.4
T2
X3.1496Y-4.8496
X3.1496Y-5.1496
X3.2496Y-4.8496
X3.2496Y-5.1496
X3.3496Y-4.8496
X3.3496Y-5.1496
X3.4496Y-4.8496
X3.4496Y-5.1496
X3.7Y-4.7
X3.7Y-5.1
X3.9Y-4.7
X3.9Y-5.1
X4.1Y-4.7
X4.1Y-5.1
X4.3Y-4.7
X4.3Y-5.1
X4.6Y-3.95
X4.6Y-4.05
X4.6Y-4.15
X4.6Y-4.25
X4.6Y-4.35
X4.6Y-4.45
X4.6Y-4.55
X4.6Y-4.65
X4.6Y-4.75
X4.6Y-4.85
X4.6Y-4.95
X4.6Y-5.05
X5.2Y-3.95
X5.2Y-4.05
X5.2Y-4.15
X5.2Y-4.25
X5.2Y-4.35
X5.2Y-4.45
X5.2Y-4.55
X5.2Y-4.65
X5.2Y-4.75
X5.2Y-4.85
X5.2Y-4.95
X5.2Y-5.05
X5.5Y-4.7
X5.5Y-5.1
T3
X3.1Y-3.9
X3.1Y-4.0
X3.1Y-4.3
X3.1Y-4.4
T0
M30
