%TF.GenerationSoftware,KiCad,Pcbnew,(6.0.5)*%
%TF.CreationDate,2023-04-11T14:57:45-04:00*%
%TF.ProjectId,Robot Controller PCB,526f626f-7420-4436-9f6e-74726f6c6c65,rev?*%
%TF.SameCoordinates,Original*%
%TF.FileFunction,Soldermask,Bot*%
%TF.FilePolarity,Negative*%
%FSLAX46Y46*%
G04 Gerber Fmt 4.6, Leading zero omitted, Abs format (unit mm)*
G04 Created by KiCad (PCBNEW (6.0.5)) date 2023-04-11 14:57:45*
%MOMM*%
%LPD*%
G01*
G04 APERTURE LIST*
%ADD10C,1.524000*%
%ADD11C,1.600000*%
%ADD12O,1.600000X1.600000*%
%ADD13R,1.700000X1.700000*%
%ADD14O,1.700000X1.700000*%
%ADD15R,1.600000X1.600000*%
G04 APERTURE END LIST*
D10*
%TO.C,gnd\u002C led\u002C push*%
X93980000Y-96520000D03*
X93980000Y-99060000D03*
X93980000Y-101600000D03*
%TD*%
%TO.C,gnd\u002C vcc\u002C dtb*%
X144780000Y-106680000D03*
X144780000Y-109220000D03*
X144780000Y-111760000D03*
%TD*%
%TO.C,gnd\u002C led\u002C push*%
X142240000Y-101600000D03*
X142240000Y-99060000D03*
X142240000Y-96520000D03*
%TD*%
%TO.C,gnd\u002C vcc\u002C dtb*%
X109220000Y-106680000D03*
X109220000Y-109220000D03*
X109220000Y-111760000D03*
%TD*%
D11*
%TO.C,R2(20k)*%
X99060000Y-129540000D03*
D12*
X99060000Y-119380000D03*
%TD*%
D11*
%TO.C,R5(10k)*%
X139700000Y-129540000D03*
D12*
X139700000Y-119380000D03*
%TD*%
D11*
%TO.C,R4(80k)*%
X109220000Y-129540000D03*
D12*
X109220000Y-119380000D03*
%TD*%
D13*
%TO.C,Toggle*%
X78740000Y-99060000D03*
D14*
X78740000Y-101600000D03*
%TD*%
D12*
%TO.C,Arduino Leonardo *%
X132080000Y-100330000D03*
X132080000Y-102870000D03*
X132080000Y-105410000D03*
X132080000Y-107950000D03*
X132080000Y-110490000D03*
X132080000Y-113030000D03*
X132080000Y-115570000D03*
X132080000Y-118110000D03*
X132080000Y-120650000D03*
X132080000Y-123190000D03*
X132080000Y-125730000D03*
X132080000Y-128270000D03*
X116840000Y-128270000D03*
X116840000Y-125730000D03*
X116840000Y-123190000D03*
X116840000Y-120650000D03*
X116840000Y-118110000D03*
X116840000Y-115570000D03*
X116840000Y-113030000D03*
X116840000Y-110490000D03*
X116840000Y-107950000D03*
X116840000Y-105410000D03*
X116840000Y-102870000D03*
D15*
X116840000Y-100330000D03*
%TD*%
D13*
%TO.C,Toggle*%
X78740000Y-109220000D03*
D14*
X78740000Y-111760000D03*
%TD*%
D10*
%TO.C,gnd\u002C vcc\u002C dtb*%
X99060000Y-106680000D03*
X99060000Y-109220000D03*
X99060000Y-111760000D03*
%TD*%
%TO.C,gnd\u002C led\u002C push*%
X104140000Y-96520000D03*
X104140000Y-99060000D03*
X104140000Y-101600000D03*
%TD*%
D11*
%TO.C,R3(40k)*%
X104140000Y-129540000D03*
D12*
X104140000Y-119380000D03*
%TD*%
D10*
%TO.C,gnd\u002C vcc\u002C dtb*%
X154940000Y-111760000D03*
X154940000Y-109220000D03*
X154940000Y-106680000D03*
%TD*%
%TO.C,gnd\u002C led\u002C push*%
X152400000Y-96520000D03*
X152400000Y-99060000D03*
X152400000Y-101600000D03*
%TD*%
D11*
%TO.C,R1(10k)*%
X93980000Y-119380000D03*
D12*
X93980000Y-129540000D03*
%TD*%
D15*
%TO.C,Dipswitch*%
X87620000Y-130800000D03*
D12*
X85080000Y-130800000D03*
X82540000Y-130800000D03*
X80000000Y-130800000D03*
X80000000Y-123180000D03*
X82540000Y-123180000D03*
X85080000Y-123180000D03*
X87620000Y-123180000D03*
%TD*%
M02*
