%TF.GenerationSoftware,KiCad,Pcbnew,(6.0.5)*%
%TF.CreationDate,2023-04-11T14:57:45-04:00*%
%TF.ProjectId,Robot Controller PCB,526f626f-7420-4436-9f6e-74726f6c6c65,rev?*%
%TF.SameCoordinates,Original*%
%TF.FileFunction,Legend,Bot*%
%TF.FilePolarity,Positive*%
%FSLAX46Y46*%
G04 Gerber Fmt 4.6, Leading zero omitted, Abs format (unit mm)*
G04 Created by KiCad (PCBNEW (6.0.5)) date 2023-04-11 14:57:45*
%MOMM*%
%LPD*%
G01*
G04 APERTURE LIST*
%ADD10C,0.150000*%
%ADD11C,0.127000*%
%ADD12C,0.120000*%
G04 APERTURE END LIST*
D10*
X88851904Y-121102380D02*
X88851904Y-120102380D01*
X88518571Y-120816666D01*
X88185238Y-120102380D01*
X88185238Y-121102380D01*
X87566190Y-121102380D02*
X87661428Y-121054761D01*
X87709047Y-121007142D01*
X87756666Y-120911904D01*
X87756666Y-120626190D01*
X87709047Y-120530952D01*
X87661428Y-120483333D01*
X87566190Y-120435714D01*
X87423333Y-120435714D01*
X87328095Y-120483333D01*
X87280476Y-120530952D01*
X87232857Y-120626190D01*
X87232857Y-120911904D01*
X87280476Y-121007142D01*
X87328095Y-121054761D01*
X87423333Y-121102380D01*
X87566190Y-121102380D01*
X86804285Y-121102380D02*
X86804285Y-120435714D01*
X86804285Y-120530952D02*
X86756666Y-120483333D01*
X86661428Y-120435714D01*
X86518571Y-120435714D01*
X86423333Y-120483333D01*
X86375714Y-120578571D01*
X86375714Y-121102380D01*
X86375714Y-120578571D02*
X86328095Y-120483333D01*
X86232857Y-120435714D01*
X86090000Y-120435714D01*
X85994761Y-120483333D01*
X85947142Y-120578571D01*
X85947142Y-121102380D01*
X85090000Y-121054761D02*
X85185238Y-121102380D01*
X85375714Y-121102380D01*
X85470952Y-121054761D01*
X85518571Y-120959523D01*
X85518571Y-120578571D01*
X85470952Y-120483333D01*
X85375714Y-120435714D01*
X85185238Y-120435714D01*
X85090000Y-120483333D01*
X85042380Y-120578571D01*
X85042380Y-120673809D01*
X85518571Y-120769047D01*
X84613809Y-120435714D02*
X84613809Y-121102380D01*
X84613809Y-120530952D02*
X84566190Y-120483333D01*
X84470952Y-120435714D01*
X84328095Y-120435714D01*
X84232857Y-120483333D01*
X84185238Y-120578571D01*
X84185238Y-121102380D01*
X83851904Y-120435714D02*
X83470952Y-120435714D01*
X83709047Y-120102380D02*
X83709047Y-120959523D01*
X83661428Y-121054761D01*
X83566190Y-121102380D01*
X83470952Y-121102380D01*
X82709047Y-121102380D02*
X82709047Y-120578571D01*
X82756666Y-120483333D01*
X82851904Y-120435714D01*
X83042380Y-120435714D01*
X83137619Y-120483333D01*
X82709047Y-121054761D02*
X82804285Y-121102380D01*
X83042380Y-121102380D01*
X83137619Y-121054761D01*
X83185238Y-120959523D01*
X83185238Y-120864285D01*
X83137619Y-120769047D01*
X83042380Y-120721428D01*
X82804285Y-120721428D01*
X82709047Y-120673809D01*
X82232857Y-121102380D02*
X82232857Y-120435714D01*
X82232857Y-120626190D02*
X82185238Y-120530952D01*
X82137619Y-120483333D01*
X82042380Y-120435714D01*
X81947142Y-120435714D01*
X81709047Y-120435714D02*
X81470952Y-121102380D01*
X81232857Y-120435714D02*
X81470952Y-121102380D01*
X81566190Y-121340476D01*
X81613809Y-121388095D01*
X81709047Y-121435714D01*
X86153333Y-132802380D02*
X85581904Y-132802380D01*
X85867619Y-133802380D02*
X85867619Y-132802380D01*
X85105714Y-133802380D02*
X85200952Y-133754761D01*
X85248571Y-133707142D01*
X85296190Y-133611904D01*
X85296190Y-133326190D01*
X85248571Y-133230952D01*
X85200952Y-133183333D01*
X85105714Y-133135714D01*
X84962857Y-133135714D01*
X84867619Y-133183333D01*
X84820000Y-133230952D01*
X84772380Y-133326190D01*
X84772380Y-133611904D01*
X84820000Y-133707142D01*
X84867619Y-133754761D01*
X84962857Y-133802380D01*
X85105714Y-133802380D01*
X83915238Y-133135714D02*
X83915238Y-133945238D01*
X83962857Y-134040476D01*
X84010476Y-134088095D01*
X84105714Y-134135714D01*
X84248571Y-134135714D01*
X84343809Y-134088095D01*
X83915238Y-133754761D02*
X84010476Y-133802380D01*
X84200952Y-133802380D01*
X84296190Y-133754761D01*
X84343809Y-133707142D01*
X84391428Y-133611904D01*
X84391428Y-133326190D01*
X84343809Y-133230952D01*
X84296190Y-133183333D01*
X84200952Y-133135714D01*
X84010476Y-133135714D01*
X83915238Y-133183333D01*
X83010476Y-133135714D02*
X83010476Y-133945238D01*
X83058095Y-134040476D01*
X83105714Y-134088095D01*
X83200952Y-134135714D01*
X83343809Y-134135714D01*
X83439047Y-134088095D01*
X83010476Y-133754761D02*
X83105714Y-133802380D01*
X83296190Y-133802380D01*
X83391428Y-133754761D01*
X83439047Y-133707142D01*
X83486666Y-133611904D01*
X83486666Y-133326190D01*
X83439047Y-133230952D01*
X83391428Y-133183333D01*
X83296190Y-133135714D01*
X83105714Y-133135714D01*
X83010476Y-133183333D01*
X82391428Y-133802380D02*
X82486666Y-133754761D01*
X82534285Y-133659523D01*
X82534285Y-132802380D01*
X81629523Y-133754761D02*
X81724761Y-133802380D01*
X81915238Y-133802380D01*
X82010476Y-133754761D01*
X82058095Y-133659523D01*
X82058095Y-133278571D01*
X82010476Y-133183333D01*
X81915238Y-133135714D01*
X81724761Y-133135714D01*
X81629523Y-133183333D01*
X81581904Y-133278571D01*
X81581904Y-133373809D01*
X82058095Y-133469047D01*
X168225714Y-126087142D02*
X168273333Y-126134761D01*
X168416190Y-126182380D01*
X168511428Y-126182380D01*
X168654285Y-126134761D01*
X168749523Y-126039523D01*
X168797142Y-125944285D01*
X168844761Y-125753809D01*
X168844761Y-125610952D01*
X168797142Y-125420476D01*
X168749523Y-125325238D01*
X168654285Y-125230000D01*
X168511428Y-125182380D01*
X168416190Y-125182380D01*
X168273333Y-125230000D01*
X168225714Y-125277619D01*
X167654285Y-126182380D02*
X167749523Y-126134761D01*
X167797142Y-126087142D01*
X167844761Y-125991904D01*
X167844761Y-125706190D01*
X167797142Y-125610952D01*
X167749523Y-125563333D01*
X167654285Y-125515714D01*
X167511428Y-125515714D01*
X167416190Y-125563333D01*
X167368571Y-125610952D01*
X167320952Y-125706190D01*
X167320952Y-125991904D01*
X167368571Y-126087142D01*
X167416190Y-126134761D01*
X167511428Y-126182380D01*
X167654285Y-126182380D01*
X166463809Y-126182380D02*
X166463809Y-125182380D01*
X166463809Y-126134761D02*
X166559047Y-126182380D01*
X166749523Y-126182380D01*
X166844761Y-126134761D01*
X166892380Y-126087142D01*
X166940000Y-125991904D01*
X166940000Y-125706190D01*
X166892380Y-125610952D01*
X166844761Y-125563333D01*
X166749523Y-125515714D01*
X166559047Y-125515714D01*
X166463809Y-125563333D01*
X165606666Y-126134761D02*
X165701904Y-126182380D01*
X165892380Y-126182380D01*
X165987619Y-126134761D01*
X166035238Y-126039523D01*
X166035238Y-125658571D01*
X165987619Y-125563333D01*
X165892380Y-125515714D01*
X165701904Y-125515714D01*
X165606666Y-125563333D01*
X165559047Y-125658571D01*
X165559047Y-125753809D01*
X166035238Y-125849047D01*
X165082857Y-126134761D02*
X165082857Y-126182380D01*
X165130476Y-126277619D01*
X165178095Y-126325238D01*
X163892380Y-126182380D02*
X163892380Y-125182380D01*
X163511428Y-125182380D01*
X163416190Y-125230000D01*
X163368571Y-125277619D01*
X163320952Y-125372857D01*
X163320952Y-125515714D01*
X163368571Y-125610952D01*
X163416190Y-125658571D01*
X163511428Y-125706190D01*
X163892380Y-125706190D01*
X162320952Y-126087142D02*
X162368571Y-126134761D01*
X162511428Y-126182380D01*
X162606666Y-126182380D01*
X162749523Y-126134761D01*
X162844761Y-126039523D01*
X162892380Y-125944285D01*
X162940000Y-125753809D01*
X162940000Y-125610952D01*
X162892380Y-125420476D01*
X162844761Y-125325238D01*
X162749523Y-125230000D01*
X162606666Y-125182380D01*
X162511428Y-125182380D01*
X162368571Y-125230000D01*
X162320952Y-125277619D01*
X161559047Y-125658571D02*
X161416190Y-125706190D01*
X161368571Y-125753809D01*
X161320952Y-125849047D01*
X161320952Y-125991904D01*
X161368571Y-126087142D01*
X161416190Y-126134761D01*
X161511428Y-126182380D01*
X161892380Y-126182380D01*
X161892380Y-125182380D01*
X161559047Y-125182380D01*
X161463809Y-125230000D01*
X161416190Y-125277619D01*
X161368571Y-125372857D01*
X161368571Y-125468095D01*
X161416190Y-125563333D01*
X161463809Y-125610952D01*
X161559047Y-125658571D01*
X161892380Y-125658571D01*
X160844761Y-126134761D02*
X160844761Y-126182380D01*
X160892380Y-126277619D01*
X160940000Y-126325238D01*
X159082857Y-126087142D02*
X159130476Y-126134761D01*
X159273333Y-126182380D01*
X159368571Y-126182380D01*
X159511428Y-126134761D01*
X159606666Y-126039523D01*
X159654285Y-125944285D01*
X159701904Y-125753809D01*
X159701904Y-125610952D01*
X159654285Y-125420476D01*
X159606666Y-125325238D01*
X159511428Y-125230000D01*
X159368571Y-125182380D01*
X159273333Y-125182380D01*
X159130476Y-125230000D01*
X159082857Y-125277619D01*
X158701904Y-125896666D02*
X158225714Y-125896666D01*
X158797142Y-126182380D02*
X158463809Y-125182380D01*
X158130476Y-126182380D01*
X157797142Y-126182380D02*
X157797142Y-125182380D01*
X157559047Y-125182380D01*
X157416190Y-125230000D01*
X157320952Y-125325238D01*
X157273333Y-125420476D01*
X157225714Y-125610952D01*
X157225714Y-125753809D01*
X157273333Y-125944285D01*
X157320952Y-126039523D01*
X157416190Y-126134761D01*
X157559047Y-126182380D01*
X157797142Y-126182380D01*
X156749523Y-126134761D02*
X156749523Y-126182380D01*
X156797142Y-126277619D01*
X156844761Y-126325238D01*
X155130476Y-126182380D02*
X155130476Y-125658571D01*
X155178095Y-125563333D01*
X155273333Y-125515714D01*
X155463809Y-125515714D01*
X155559047Y-125563333D01*
X155130476Y-126134761D02*
X155225714Y-126182380D01*
X155463809Y-126182380D01*
X155559047Y-126134761D01*
X155606666Y-126039523D01*
X155606666Y-125944285D01*
X155559047Y-125849047D01*
X155463809Y-125801428D01*
X155225714Y-125801428D01*
X155130476Y-125753809D01*
X154654285Y-125515714D02*
X154654285Y-126182380D01*
X154654285Y-125610952D02*
X154606666Y-125563333D01*
X154511428Y-125515714D01*
X154368571Y-125515714D01*
X154273333Y-125563333D01*
X154225714Y-125658571D01*
X154225714Y-126182380D01*
X153320952Y-126182380D02*
X153320952Y-125182380D01*
X153320952Y-126134761D02*
X153416190Y-126182380D01*
X153606666Y-126182380D01*
X153701904Y-126134761D01*
X153749523Y-126087142D01*
X153797142Y-125991904D01*
X153797142Y-125706190D01*
X153749523Y-125610952D01*
X153701904Y-125563333D01*
X153606666Y-125515714D01*
X153416190Y-125515714D01*
X153320952Y-125563333D01*
X151940000Y-126182380D02*
X152035238Y-126134761D01*
X152082857Y-126087142D01*
X152130476Y-125991904D01*
X152130476Y-125706190D01*
X152082857Y-125610952D01*
X152035238Y-125563333D01*
X151940000Y-125515714D01*
X151797142Y-125515714D01*
X151701904Y-125563333D01*
X151654285Y-125610952D01*
X151606666Y-125706190D01*
X151606666Y-125991904D01*
X151654285Y-126087142D01*
X151701904Y-126134761D01*
X151797142Y-126182380D01*
X151940000Y-126182380D01*
X151320952Y-125515714D02*
X150940000Y-125515714D01*
X151178095Y-125182380D02*
X151178095Y-126039523D01*
X151130476Y-126134761D01*
X151035238Y-126182380D01*
X150940000Y-126182380D01*
X150606666Y-126182380D02*
X150606666Y-125182380D01*
X150178095Y-126182380D02*
X150178095Y-125658571D01*
X150225714Y-125563333D01*
X150320952Y-125515714D01*
X150463809Y-125515714D01*
X150559047Y-125563333D01*
X150606666Y-125610952D01*
X149320952Y-126134761D02*
X149416190Y-126182380D01*
X149606666Y-126182380D01*
X149701904Y-126134761D01*
X149749523Y-126039523D01*
X149749523Y-125658571D01*
X149701904Y-125563333D01*
X149606666Y-125515714D01*
X149416190Y-125515714D01*
X149320952Y-125563333D01*
X149273333Y-125658571D01*
X149273333Y-125753809D01*
X149749523Y-125849047D01*
X148844761Y-126182380D02*
X148844761Y-125515714D01*
X148844761Y-125706190D02*
X148797142Y-125610952D01*
X148749523Y-125563333D01*
X148654285Y-125515714D01*
X148559047Y-125515714D01*
X147463809Y-126182380D02*
X147463809Y-125515714D01*
X147463809Y-125706190D02*
X147416190Y-125610952D01*
X147368571Y-125563333D01*
X147273333Y-125515714D01*
X147178095Y-125515714D01*
X146463809Y-126134761D02*
X146559047Y-126182380D01*
X146749523Y-126182380D01*
X146844761Y-126134761D01*
X146892380Y-126039523D01*
X146892380Y-125658571D01*
X146844761Y-125563333D01*
X146749523Y-125515714D01*
X146559047Y-125515714D01*
X146463809Y-125563333D01*
X146416190Y-125658571D01*
X146416190Y-125753809D01*
X146892380Y-125849047D01*
X145559047Y-126134761D02*
X145654285Y-126182380D01*
X145844761Y-126182380D01*
X145940000Y-126134761D01*
X145987619Y-126087142D01*
X146035238Y-125991904D01*
X146035238Y-125706190D01*
X145987619Y-125610952D01*
X145940000Y-125563333D01*
X145844761Y-125515714D01*
X145654285Y-125515714D01*
X145559047Y-125563333D01*
X144987619Y-126182380D02*
X145082857Y-126134761D01*
X145130476Y-126087142D01*
X145178095Y-125991904D01*
X145178095Y-125706190D01*
X145130476Y-125610952D01*
X145082857Y-125563333D01*
X144987619Y-125515714D01*
X144844761Y-125515714D01*
X144749523Y-125563333D01*
X144701904Y-125610952D01*
X144654285Y-125706190D01*
X144654285Y-125991904D01*
X144701904Y-126087142D01*
X144749523Y-126134761D01*
X144844761Y-126182380D01*
X144987619Y-126182380D01*
X144225714Y-126182380D02*
X144225714Y-125515714D01*
X144225714Y-125706190D02*
X144178095Y-125610952D01*
X144130476Y-125563333D01*
X144035238Y-125515714D01*
X143940000Y-125515714D01*
X143178095Y-126134761D02*
X143273333Y-126182380D01*
X143463809Y-126182380D01*
X143559047Y-126134761D01*
X143606666Y-126087142D01*
X143654285Y-125991904D01*
X143654285Y-125706190D01*
X143606666Y-125610952D01*
X143559047Y-125563333D01*
X143463809Y-125515714D01*
X143273333Y-125515714D01*
X143178095Y-125563333D01*
X142368571Y-126134761D02*
X142463809Y-126182380D01*
X142654285Y-126182380D01*
X142749523Y-126134761D01*
X142797142Y-126039523D01*
X142797142Y-125658571D01*
X142749523Y-125563333D01*
X142654285Y-125515714D01*
X142463809Y-125515714D01*
X142368571Y-125563333D01*
X142320952Y-125658571D01*
X142320952Y-125753809D01*
X142797142Y-125849047D01*
X141940000Y-126134761D02*
X141844761Y-126182380D01*
X141654285Y-126182380D01*
X141559047Y-126134761D01*
X141511428Y-126039523D01*
X141511428Y-125991904D01*
X141559047Y-125896666D01*
X141654285Y-125849047D01*
X141797142Y-125849047D01*
X141892380Y-125801428D01*
X141940000Y-125706190D01*
X141940000Y-125658571D01*
X141892380Y-125563333D01*
X141797142Y-125515714D01*
X141654285Y-125515714D01*
X141559047Y-125563333D01*
X141082857Y-126087142D02*
X141035238Y-126134761D01*
X141082857Y-126182380D01*
X141130476Y-126134761D01*
X141082857Y-126087142D01*
X141082857Y-126182380D01*
X141082857Y-125563333D02*
X141035238Y-125610952D01*
X141082857Y-125658571D01*
X141130476Y-125610952D01*
X141082857Y-125563333D01*
X141082857Y-125658571D01*
D11*
X168402000Y-127344714D02*
X168402000Y-126582714D01*
X168075428Y-127344714D02*
X168075428Y-126945571D01*
X168111714Y-126873000D01*
X168184285Y-126836714D01*
X168293142Y-126836714D01*
X168365714Y-126873000D01*
X168402000Y-126909285D01*
X167821428Y-126836714D02*
X167531142Y-126836714D01*
X167712571Y-126582714D02*
X167712571Y-127235857D01*
X167676285Y-127308428D01*
X167603714Y-127344714D01*
X167531142Y-127344714D01*
X167386000Y-126836714D02*
X167095714Y-126836714D01*
X167277142Y-126582714D02*
X167277142Y-127235857D01*
X167240857Y-127308428D01*
X167168285Y-127344714D01*
X167095714Y-127344714D01*
X166841714Y-126836714D02*
X166841714Y-127598714D01*
X166841714Y-126873000D02*
X166769142Y-126836714D01*
X166624000Y-126836714D01*
X166551428Y-126873000D01*
X166515142Y-126909285D01*
X166478857Y-126981857D01*
X166478857Y-127199571D01*
X166515142Y-127272142D01*
X166551428Y-127308428D01*
X166624000Y-127344714D01*
X166769142Y-127344714D01*
X166841714Y-127308428D01*
X166188571Y-127308428D02*
X166116000Y-127344714D01*
X165970857Y-127344714D01*
X165898285Y-127308428D01*
X165862000Y-127235857D01*
X165862000Y-127199571D01*
X165898285Y-127127000D01*
X165970857Y-127090714D01*
X166079714Y-127090714D01*
X166152285Y-127054428D01*
X166188571Y-126981857D01*
X166188571Y-126945571D01*
X166152285Y-126873000D01*
X166079714Y-126836714D01*
X165970857Y-126836714D01*
X165898285Y-126873000D01*
X165535428Y-127272142D02*
X165499142Y-127308428D01*
X165535428Y-127344714D01*
X165571714Y-127308428D01*
X165535428Y-127272142D01*
X165535428Y-127344714D01*
X165535428Y-126873000D02*
X165499142Y-126909285D01*
X165535428Y-126945571D01*
X165571714Y-126909285D01*
X165535428Y-126873000D01*
X165535428Y-126945571D01*
X164628285Y-126546428D02*
X165281428Y-127526142D01*
X163830000Y-126546428D02*
X164483142Y-127526142D01*
X163249428Y-126836714D02*
X163249428Y-127453571D01*
X163285714Y-127526142D01*
X163322000Y-127562428D01*
X163394571Y-127598714D01*
X163503428Y-127598714D01*
X163576000Y-127562428D01*
X163249428Y-127308428D02*
X163322000Y-127344714D01*
X163467142Y-127344714D01*
X163539714Y-127308428D01*
X163576000Y-127272142D01*
X163612285Y-127199571D01*
X163612285Y-126981857D01*
X163576000Y-126909285D01*
X163539714Y-126873000D01*
X163467142Y-126836714D01*
X163322000Y-126836714D01*
X163249428Y-126873000D01*
X162886571Y-127344714D02*
X162886571Y-126836714D01*
X162886571Y-126582714D02*
X162922857Y-126619000D01*
X162886571Y-126655285D01*
X162850285Y-126619000D01*
X162886571Y-126582714D01*
X162886571Y-126655285D01*
X162632571Y-126836714D02*
X162342285Y-126836714D01*
X162523714Y-126582714D02*
X162523714Y-127235857D01*
X162487428Y-127308428D01*
X162414857Y-127344714D01*
X162342285Y-127344714D01*
X162088285Y-127344714D02*
X162088285Y-126582714D01*
X161761714Y-127344714D02*
X161761714Y-126945571D01*
X161798000Y-126873000D01*
X161870571Y-126836714D01*
X161979428Y-126836714D01*
X162052000Y-126873000D01*
X162088285Y-126909285D01*
X161072285Y-126836714D02*
X161072285Y-127344714D01*
X161398857Y-126836714D02*
X161398857Y-127235857D01*
X161362571Y-127308428D01*
X161290000Y-127344714D01*
X161181142Y-127344714D01*
X161108571Y-127308428D01*
X161072285Y-127272142D01*
X160709428Y-127344714D02*
X160709428Y-126582714D01*
X160709428Y-126873000D02*
X160636857Y-126836714D01*
X160491714Y-126836714D01*
X160419142Y-126873000D01*
X160382857Y-126909285D01*
X160346571Y-126981857D01*
X160346571Y-127199571D01*
X160382857Y-127272142D01*
X160419142Y-127308428D01*
X160491714Y-127344714D01*
X160636857Y-127344714D01*
X160709428Y-127308428D01*
X160020000Y-127272142D02*
X159983714Y-127308428D01*
X160020000Y-127344714D01*
X160056285Y-127308428D01*
X160020000Y-127272142D01*
X160020000Y-127344714D01*
X159330571Y-127308428D02*
X159403142Y-127344714D01*
X159548285Y-127344714D01*
X159620857Y-127308428D01*
X159657142Y-127272142D01*
X159693428Y-127199571D01*
X159693428Y-126981857D01*
X159657142Y-126909285D01*
X159620857Y-126873000D01*
X159548285Y-126836714D01*
X159403142Y-126836714D01*
X159330571Y-126873000D01*
X158895142Y-127344714D02*
X158967714Y-127308428D01*
X159004000Y-127272142D01*
X159040285Y-127199571D01*
X159040285Y-126981857D01*
X159004000Y-126909285D01*
X158967714Y-126873000D01*
X158895142Y-126836714D01*
X158786285Y-126836714D01*
X158713714Y-126873000D01*
X158677428Y-126909285D01*
X158641142Y-126981857D01*
X158641142Y-127199571D01*
X158677428Y-127272142D01*
X158713714Y-127308428D01*
X158786285Y-127344714D01*
X158895142Y-127344714D01*
X158314571Y-127344714D02*
X158314571Y-126836714D01*
X158314571Y-126909285D02*
X158278285Y-126873000D01*
X158205714Y-126836714D01*
X158096857Y-126836714D01*
X158024285Y-126873000D01*
X157988000Y-126945571D01*
X157988000Y-127344714D01*
X157988000Y-126945571D02*
X157951714Y-126873000D01*
X157879142Y-126836714D01*
X157770285Y-126836714D01*
X157697714Y-126873000D01*
X157661428Y-126945571D01*
X157661428Y-127344714D01*
X156754285Y-126546428D02*
X157407428Y-127526142D01*
X156173714Y-127308428D02*
X156246285Y-127344714D01*
X156391428Y-127344714D01*
X156464000Y-127308428D01*
X156500285Y-127272142D01*
X156536571Y-127199571D01*
X156536571Y-126981857D01*
X156500285Y-126909285D01*
X156464000Y-126873000D01*
X156391428Y-126836714D01*
X156246285Y-126836714D01*
X156173714Y-126873000D01*
X155883428Y-127308428D02*
X155810857Y-127344714D01*
X155665714Y-127344714D01*
X155593142Y-127308428D01*
X155556857Y-127235857D01*
X155556857Y-127199571D01*
X155593142Y-127127000D01*
X155665714Y-127090714D01*
X155774571Y-127090714D01*
X155847142Y-127054428D01*
X155883428Y-126981857D01*
X155883428Y-126945571D01*
X155847142Y-126873000D01*
X155774571Y-126836714D01*
X155665714Y-126836714D01*
X155593142Y-126873000D01*
X155230285Y-126836714D02*
X155230285Y-127598714D01*
X155230285Y-126873000D02*
X155157714Y-126836714D01*
X155012571Y-126836714D01*
X154940000Y-126873000D01*
X154903714Y-126909285D01*
X154867428Y-126981857D01*
X154867428Y-127199571D01*
X154903714Y-127272142D01*
X154940000Y-127308428D01*
X155012571Y-127344714D01*
X155157714Y-127344714D01*
X155230285Y-127308428D01*
X154432000Y-127344714D02*
X154504571Y-127308428D01*
X154540857Y-127272142D01*
X154577142Y-127199571D01*
X154577142Y-126981857D01*
X154540857Y-126909285D01*
X154504571Y-126873000D01*
X154432000Y-126836714D01*
X154323142Y-126836714D01*
X154250571Y-126873000D01*
X154214285Y-126909285D01*
X154178000Y-126981857D01*
X154178000Y-127199571D01*
X154214285Y-127272142D01*
X154250571Y-127308428D01*
X154323142Y-127344714D01*
X154432000Y-127344714D01*
X153742571Y-127344714D02*
X153815142Y-127308428D01*
X153851428Y-127272142D01*
X153887714Y-127199571D01*
X153887714Y-126981857D01*
X153851428Y-126909285D01*
X153815142Y-126873000D01*
X153742571Y-126836714D01*
X153633714Y-126836714D01*
X153561142Y-126873000D01*
X153524857Y-126909285D01*
X153488571Y-126981857D01*
X153488571Y-127199571D01*
X153524857Y-127272142D01*
X153561142Y-127308428D01*
X153633714Y-127344714D01*
X153742571Y-127344714D01*
X153162000Y-126836714D02*
X153162000Y-127344714D01*
X153162000Y-126909285D02*
X153125714Y-126873000D01*
X153053142Y-126836714D01*
X152944285Y-126836714D01*
X152871714Y-126873000D01*
X152835428Y-126945571D01*
X152835428Y-127344714D01*
X152182285Y-127308428D02*
X152254857Y-127344714D01*
X152400000Y-127344714D01*
X152472571Y-127308428D01*
X152508857Y-127235857D01*
X152508857Y-126945571D01*
X152472571Y-126873000D01*
X152400000Y-126836714D01*
X152254857Y-126836714D01*
X152182285Y-126873000D01*
X152146000Y-126945571D01*
X152146000Y-127018142D01*
X152508857Y-127090714D01*
X151819428Y-127344714D02*
X151819428Y-126836714D01*
X151819428Y-126981857D02*
X151783142Y-126909285D01*
X151746857Y-126873000D01*
X151674285Y-126836714D01*
X151601714Y-126836714D01*
X151347714Y-127344714D02*
X151347714Y-126582714D01*
X150912285Y-127344714D02*
X151238857Y-126909285D01*
X150912285Y-126582714D02*
X151347714Y-127018142D01*
X150150285Y-127344714D02*
X150404285Y-126981857D01*
X150585714Y-127344714D02*
X150585714Y-126582714D01*
X150295428Y-126582714D01*
X150222857Y-126619000D01*
X150186571Y-126655285D01*
X150150285Y-126727857D01*
X150150285Y-126836714D01*
X150186571Y-126909285D01*
X150222857Y-126945571D01*
X150295428Y-126981857D01*
X150585714Y-126981857D01*
X149823714Y-127344714D02*
X149823714Y-126582714D01*
X149823714Y-126945571D02*
X149388285Y-126945571D01*
X149388285Y-127344714D02*
X149388285Y-126582714D01*
X149061714Y-127308428D02*
X148952857Y-127344714D01*
X148771428Y-127344714D01*
X148698857Y-127308428D01*
X148662571Y-127272142D01*
X148626285Y-127199571D01*
X148626285Y-127127000D01*
X148662571Y-127054428D01*
X148698857Y-127018142D01*
X148771428Y-126981857D01*
X148916571Y-126945571D01*
X148989142Y-126909285D01*
X149025428Y-126873000D01*
X149061714Y-126800428D01*
X149061714Y-126727857D01*
X149025428Y-126655285D01*
X148989142Y-126619000D01*
X148916571Y-126582714D01*
X148735142Y-126582714D01*
X148626285Y-126619000D01*
X147755428Y-126546428D02*
X148408571Y-127526142D01*
X147066000Y-127344714D02*
X147320000Y-126981857D01*
X147501428Y-127344714D02*
X147501428Y-126582714D01*
X147211142Y-126582714D01*
X147138571Y-126619000D01*
X147102285Y-126655285D01*
X147066000Y-126727857D01*
X147066000Y-126836714D01*
X147102285Y-126909285D01*
X147138571Y-126945571D01*
X147211142Y-126981857D01*
X147501428Y-126981857D01*
X146630571Y-127344714D02*
X146703142Y-127308428D01*
X146739428Y-127272142D01*
X146775714Y-127199571D01*
X146775714Y-126981857D01*
X146739428Y-126909285D01*
X146703142Y-126873000D01*
X146630571Y-126836714D01*
X146521714Y-126836714D01*
X146449142Y-126873000D01*
X146412857Y-126909285D01*
X146376571Y-126981857D01*
X146376571Y-127199571D01*
X146412857Y-127272142D01*
X146449142Y-127308428D01*
X146521714Y-127344714D01*
X146630571Y-127344714D01*
X146050000Y-127344714D02*
X146050000Y-126582714D01*
X146050000Y-126873000D02*
X145977428Y-126836714D01*
X145832285Y-126836714D01*
X145759714Y-126873000D01*
X145723428Y-126909285D01*
X145687142Y-126981857D01*
X145687142Y-127199571D01*
X145723428Y-127272142D01*
X145759714Y-127308428D01*
X145832285Y-127344714D01*
X145977428Y-127344714D01*
X146050000Y-127308428D01*
X145251714Y-127344714D02*
X145324285Y-127308428D01*
X145360571Y-127272142D01*
X145396857Y-127199571D01*
X145396857Y-126981857D01*
X145360571Y-126909285D01*
X145324285Y-126873000D01*
X145251714Y-126836714D01*
X145142857Y-126836714D01*
X145070285Y-126873000D01*
X145034000Y-126909285D01*
X144997714Y-126981857D01*
X144997714Y-127199571D01*
X145034000Y-127272142D01*
X145070285Y-127308428D01*
X145142857Y-127344714D01*
X145251714Y-127344714D01*
X144780000Y-126836714D02*
X144489714Y-126836714D01*
X144671142Y-126582714D02*
X144671142Y-127235857D01*
X144634857Y-127308428D01*
X144562285Y-127344714D01*
X144489714Y-127344714D01*
X143800285Y-127272142D02*
X143836571Y-127308428D01*
X143945428Y-127344714D01*
X144018000Y-127344714D01*
X144126857Y-127308428D01*
X144199428Y-127235857D01*
X144235714Y-127163285D01*
X144272000Y-127018142D01*
X144272000Y-126909285D01*
X144235714Y-126764142D01*
X144199428Y-126691571D01*
X144126857Y-126619000D01*
X144018000Y-126582714D01*
X143945428Y-126582714D01*
X143836571Y-126619000D01*
X143800285Y-126655285D01*
X143364857Y-127344714D02*
X143437428Y-127308428D01*
X143473714Y-127272142D01*
X143510000Y-127199571D01*
X143510000Y-126981857D01*
X143473714Y-126909285D01*
X143437428Y-126873000D01*
X143364857Y-126836714D01*
X143256000Y-126836714D01*
X143183428Y-126873000D01*
X143147142Y-126909285D01*
X143110857Y-126981857D01*
X143110857Y-127199571D01*
X143147142Y-127272142D01*
X143183428Y-127308428D01*
X143256000Y-127344714D01*
X143364857Y-127344714D01*
X142784285Y-126836714D02*
X142784285Y-127344714D01*
X142784285Y-126909285D02*
X142748000Y-126873000D01*
X142675428Y-126836714D01*
X142566571Y-126836714D01*
X142494000Y-126873000D01*
X142457714Y-126945571D01*
X142457714Y-127344714D01*
X142203714Y-126836714D02*
X141913428Y-126836714D01*
X142094857Y-126582714D02*
X142094857Y-127235857D01*
X142058571Y-127308428D01*
X141986000Y-127344714D01*
X141913428Y-127344714D01*
X141659428Y-127344714D02*
X141659428Y-126836714D01*
X141659428Y-126981857D02*
X141623142Y-126909285D01*
X141586857Y-126873000D01*
X141514285Y-126836714D01*
X141441714Y-126836714D01*
X141078857Y-127344714D02*
X141151428Y-127308428D01*
X141187714Y-127272142D01*
X141224000Y-127199571D01*
X141224000Y-126981857D01*
X141187714Y-126909285D01*
X141151428Y-126873000D01*
X141078857Y-126836714D01*
X140970000Y-126836714D01*
X140897428Y-126873000D01*
X140861142Y-126909285D01*
X140824857Y-126981857D01*
X140824857Y-127199571D01*
X140861142Y-127272142D01*
X140897428Y-127308428D01*
X140970000Y-127344714D01*
X141078857Y-127344714D01*
X140389428Y-127344714D02*
X140462000Y-127308428D01*
X140498285Y-127235857D01*
X140498285Y-126582714D01*
X139990285Y-127344714D02*
X140062857Y-127308428D01*
X140099142Y-127235857D01*
X140099142Y-126582714D01*
X139409714Y-127308428D02*
X139482285Y-127344714D01*
X139627428Y-127344714D01*
X139700000Y-127308428D01*
X139736285Y-127235857D01*
X139736285Y-126945571D01*
X139700000Y-126873000D01*
X139627428Y-126836714D01*
X139482285Y-126836714D01*
X139409714Y-126873000D01*
X139373428Y-126945571D01*
X139373428Y-127018142D01*
X139736285Y-127090714D01*
X139046857Y-127344714D02*
X139046857Y-126836714D01*
X139046857Y-126981857D02*
X139010571Y-126909285D01*
X138974285Y-126873000D01*
X138901714Y-126836714D01*
X138829142Y-126836714D01*
D10*
X167661904Y-132437142D02*
X167709523Y-132484761D01*
X167852380Y-132532380D01*
X167947619Y-132532380D01*
X168090476Y-132484761D01*
X168185714Y-132389523D01*
X168233333Y-132294285D01*
X168280952Y-132103809D01*
X168280952Y-131960952D01*
X168233333Y-131770476D01*
X168185714Y-131675238D01*
X168090476Y-131580000D01*
X167947619Y-131532380D01*
X167852380Y-131532380D01*
X167709523Y-131580000D01*
X167661904Y-131627619D01*
X167233333Y-132532380D02*
X167233333Y-131865714D01*
X167233333Y-132056190D02*
X167185714Y-131960952D01*
X167138095Y-131913333D01*
X167042857Y-131865714D01*
X166947619Y-131865714D01*
X166233333Y-132484761D02*
X166328571Y-132532380D01*
X166519047Y-132532380D01*
X166614285Y-132484761D01*
X166661904Y-132389523D01*
X166661904Y-132008571D01*
X166614285Y-131913333D01*
X166519047Y-131865714D01*
X166328571Y-131865714D01*
X166233333Y-131913333D01*
X166185714Y-132008571D01*
X166185714Y-132103809D01*
X166661904Y-132199047D01*
X165328571Y-132532380D02*
X165328571Y-132008571D01*
X165376190Y-131913333D01*
X165471428Y-131865714D01*
X165661904Y-131865714D01*
X165757142Y-131913333D01*
X165328571Y-132484761D02*
X165423809Y-132532380D01*
X165661904Y-132532380D01*
X165757142Y-132484761D01*
X165804761Y-132389523D01*
X165804761Y-132294285D01*
X165757142Y-132199047D01*
X165661904Y-132151428D01*
X165423809Y-132151428D01*
X165328571Y-132103809D01*
X164995238Y-131865714D02*
X164614285Y-131865714D01*
X164852380Y-131532380D02*
X164852380Y-132389523D01*
X164804761Y-132484761D01*
X164709523Y-132532380D01*
X164614285Y-132532380D01*
X163900000Y-132484761D02*
X163995238Y-132532380D01*
X164185714Y-132532380D01*
X164280952Y-132484761D01*
X164328571Y-132389523D01*
X164328571Y-132008571D01*
X164280952Y-131913333D01*
X164185714Y-131865714D01*
X163995238Y-131865714D01*
X163900000Y-131913333D01*
X163852380Y-132008571D01*
X163852380Y-132103809D01*
X164328571Y-132199047D01*
X162995238Y-132532380D02*
X162995238Y-131532380D01*
X162995238Y-132484761D02*
X163090476Y-132532380D01*
X163280952Y-132532380D01*
X163376190Y-132484761D01*
X163423809Y-132437142D01*
X163471428Y-132341904D01*
X163471428Y-132056190D01*
X163423809Y-131960952D01*
X163376190Y-131913333D01*
X163280952Y-131865714D01*
X163090476Y-131865714D01*
X162995238Y-131913333D01*
X161757142Y-132532380D02*
X161757142Y-131532380D01*
X161757142Y-131913333D02*
X161661904Y-131865714D01*
X161471428Y-131865714D01*
X161376190Y-131913333D01*
X161328571Y-131960952D01*
X161280952Y-132056190D01*
X161280952Y-132341904D01*
X161328571Y-132437142D01*
X161376190Y-132484761D01*
X161471428Y-132532380D01*
X161661904Y-132532380D01*
X161757142Y-132484761D01*
X160947619Y-131865714D02*
X160709523Y-132532380D01*
X160471428Y-131865714D02*
X160709523Y-132532380D01*
X160804761Y-132770476D01*
X160852380Y-132818095D01*
X160947619Y-132865714D01*
X158757142Y-132437142D02*
X158804761Y-132484761D01*
X158947619Y-132532380D01*
X159042857Y-132532380D01*
X159185714Y-132484761D01*
X159280952Y-132389523D01*
X159328571Y-132294285D01*
X159376190Y-132103809D01*
X159376190Y-131960952D01*
X159328571Y-131770476D01*
X159280952Y-131675238D01*
X159185714Y-131580000D01*
X159042857Y-131532380D01*
X158947619Y-131532380D01*
X158804761Y-131580000D01*
X158757142Y-131627619D01*
X158328571Y-132532380D02*
X158328571Y-131532380D01*
X157900000Y-132532380D02*
X157900000Y-132008571D01*
X157947619Y-131913333D01*
X158042857Y-131865714D01*
X158185714Y-131865714D01*
X158280952Y-131913333D01*
X158328571Y-131960952D01*
X157423809Y-132532380D02*
X157423809Y-131865714D01*
X157423809Y-132056190D02*
X157376190Y-131960952D01*
X157328571Y-131913333D01*
X157233333Y-131865714D01*
X157138095Y-131865714D01*
X156804761Y-132532380D02*
X156804761Y-131865714D01*
X156804761Y-131532380D02*
X156852380Y-131580000D01*
X156804761Y-131627619D01*
X156757142Y-131580000D01*
X156804761Y-131532380D01*
X156804761Y-131627619D01*
X156376190Y-132484761D02*
X156280952Y-132532380D01*
X156090476Y-132532380D01*
X155995238Y-132484761D01*
X155947619Y-132389523D01*
X155947619Y-132341904D01*
X155995238Y-132246666D01*
X156090476Y-132199047D01*
X156233333Y-132199047D01*
X156328571Y-132151428D01*
X156376190Y-132056190D01*
X156376190Y-132008571D01*
X156328571Y-131913333D01*
X156233333Y-131865714D01*
X156090476Y-131865714D01*
X155995238Y-131913333D01*
X154804761Y-132484761D02*
X154661904Y-132532380D01*
X154423809Y-132532380D01*
X154328571Y-132484761D01*
X154280952Y-132437142D01*
X154233333Y-132341904D01*
X154233333Y-132246666D01*
X154280952Y-132151428D01*
X154328571Y-132103809D01*
X154423809Y-132056190D01*
X154614285Y-132008571D01*
X154709523Y-131960952D01*
X154757142Y-131913333D01*
X154804761Y-131818095D01*
X154804761Y-131722857D01*
X154757142Y-131627619D01*
X154709523Y-131580000D01*
X154614285Y-131532380D01*
X154376190Y-131532380D01*
X154233333Y-131580000D01*
X153804761Y-131865714D02*
X153804761Y-132865714D01*
X153804761Y-131913333D02*
X153709523Y-131865714D01*
X153519047Y-131865714D01*
X153423809Y-131913333D01*
X153376190Y-131960952D01*
X153328571Y-132056190D01*
X153328571Y-132341904D01*
X153376190Y-132437142D01*
X153423809Y-132484761D01*
X153519047Y-132532380D01*
X153709523Y-132532380D01*
X153804761Y-132484761D01*
X152757142Y-132532380D02*
X152852380Y-132484761D01*
X152900000Y-132437142D01*
X152947619Y-132341904D01*
X152947619Y-132056190D01*
X152900000Y-131960952D01*
X152852380Y-131913333D01*
X152757142Y-131865714D01*
X152614285Y-131865714D01*
X152519047Y-131913333D01*
X152471428Y-131960952D01*
X152423809Y-132056190D01*
X152423809Y-132341904D01*
X152471428Y-132437142D01*
X152519047Y-132484761D01*
X152614285Y-132532380D01*
X152757142Y-132532380D01*
X151852380Y-132532380D02*
X151947619Y-132484761D01*
X151995238Y-132437142D01*
X152042857Y-132341904D01*
X152042857Y-132056190D01*
X151995238Y-131960952D01*
X151947619Y-131913333D01*
X151852380Y-131865714D01*
X151709523Y-131865714D01*
X151614285Y-131913333D01*
X151566666Y-131960952D01*
X151519047Y-132056190D01*
X151519047Y-132341904D01*
X151566666Y-132437142D01*
X151614285Y-132484761D01*
X151709523Y-132532380D01*
X151852380Y-132532380D01*
X151090476Y-131865714D02*
X151090476Y-132532380D01*
X151090476Y-131960952D02*
X151042857Y-131913333D01*
X150947619Y-131865714D01*
X150804761Y-131865714D01*
X150709523Y-131913333D01*
X150661904Y-132008571D01*
X150661904Y-132532380D01*
X149804761Y-132484761D02*
X149900000Y-132532380D01*
X150090476Y-132532380D01*
X150185714Y-132484761D01*
X150233333Y-132389523D01*
X150233333Y-132008571D01*
X150185714Y-131913333D01*
X150090476Y-131865714D01*
X149900000Y-131865714D01*
X149804761Y-131913333D01*
X149757142Y-132008571D01*
X149757142Y-132103809D01*
X150233333Y-132199047D01*
X149328571Y-132532380D02*
X149328571Y-131865714D01*
X149328571Y-132056190D02*
X149280952Y-131960952D01*
X149233333Y-131913333D01*
X149138095Y-131865714D01*
X149042857Y-131865714D01*
X147519047Y-132532380D02*
X147519047Y-132008571D01*
X147566666Y-131913333D01*
X147661904Y-131865714D01*
X147852380Y-131865714D01*
X147947619Y-131913333D01*
X147519047Y-132484761D02*
X147614285Y-132532380D01*
X147852380Y-132532380D01*
X147947619Y-132484761D01*
X147995238Y-132389523D01*
X147995238Y-132294285D01*
X147947619Y-132199047D01*
X147852380Y-132151428D01*
X147614285Y-132151428D01*
X147519047Y-132103809D01*
X147042857Y-131865714D02*
X147042857Y-132532380D01*
X147042857Y-131960952D02*
X146995238Y-131913333D01*
X146900000Y-131865714D01*
X146757142Y-131865714D01*
X146661904Y-131913333D01*
X146614285Y-132008571D01*
X146614285Y-132532380D01*
X145709523Y-132532380D02*
X145709523Y-131532380D01*
X145709523Y-132484761D02*
X145804761Y-132532380D01*
X145995238Y-132532380D01*
X146090476Y-132484761D01*
X146138095Y-132437142D01*
X146185714Y-132341904D01*
X146185714Y-132056190D01*
X146138095Y-131960952D01*
X146090476Y-131913333D01*
X145995238Y-131865714D01*
X145804761Y-131865714D01*
X145709523Y-131913333D01*
X144471428Y-132532380D02*
X144471428Y-131532380D01*
X143900000Y-132532380D01*
X143900000Y-131532380D01*
X143280952Y-132532380D02*
X143376190Y-132484761D01*
X143423809Y-132437142D01*
X143471428Y-132341904D01*
X143471428Y-132056190D01*
X143423809Y-131960952D01*
X143376190Y-131913333D01*
X143280952Y-131865714D01*
X143138095Y-131865714D01*
X143042857Y-131913333D01*
X142995238Y-131960952D01*
X142947619Y-132056190D01*
X142947619Y-132341904D01*
X142995238Y-132437142D01*
X143042857Y-132484761D01*
X143138095Y-132532380D01*
X143280952Y-132532380D01*
X142090476Y-132532380D02*
X142090476Y-132008571D01*
X142138095Y-131913333D01*
X142233333Y-131865714D01*
X142423809Y-131865714D01*
X142519047Y-131913333D01*
X142090476Y-132484761D02*
X142185714Y-132532380D01*
X142423809Y-132532380D01*
X142519047Y-132484761D01*
X142566666Y-132389523D01*
X142566666Y-132294285D01*
X142519047Y-132199047D01*
X142423809Y-132151428D01*
X142185714Y-132151428D01*
X142090476Y-132103809D01*
X141614285Y-132532380D02*
X141614285Y-131532380D01*
X141185714Y-132532380D02*
X141185714Y-132008571D01*
X141233333Y-131913333D01*
X141328571Y-131865714D01*
X141471428Y-131865714D01*
X141566666Y-131913333D01*
X141614285Y-131960952D01*
X139376190Y-132437142D02*
X139423809Y-132484761D01*
X139566666Y-132532380D01*
X139661904Y-132532380D01*
X139804761Y-132484761D01*
X139900000Y-132389523D01*
X139947619Y-132294285D01*
X139995238Y-132103809D01*
X139995238Y-131960952D01*
X139947619Y-131770476D01*
X139900000Y-131675238D01*
X139804761Y-131580000D01*
X139661904Y-131532380D01*
X139566666Y-131532380D01*
X139423809Y-131580000D01*
X139376190Y-131627619D01*
X138804761Y-132532380D02*
X138900000Y-132484761D01*
X138947619Y-132389523D01*
X138947619Y-131532380D01*
X137995238Y-132532380D02*
X137995238Y-132008571D01*
X138042857Y-131913333D01*
X138138095Y-131865714D01*
X138328571Y-131865714D01*
X138423809Y-131913333D01*
X137995238Y-132484761D02*
X138090476Y-132532380D01*
X138328571Y-132532380D01*
X138423809Y-132484761D01*
X138471428Y-132389523D01*
X138471428Y-132294285D01*
X138423809Y-132199047D01*
X138328571Y-132151428D01*
X138090476Y-132151428D01*
X137995238Y-132103809D01*
X137519047Y-132532380D02*
X137519047Y-131865714D01*
X137519047Y-132056190D02*
X137471428Y-131960952D01*
X137423809Y-131913333D01*
X137328571Y-131865714D01*
X137233333Y-131865714D01*
X136900000Y-132532380D02*
X136900000Y-131532380D01*
X136804761Y-132151428D02*
X136519047Y-132532380D01*
X136519047Y-131865714D02*
X136900000Y-132246666D01*
%TO.C,Dipswitch*%
X90402380Y-123714285D02*
X89402380Y-123714285D01*
X89402380Y-123952380D01*
X89450000Y-124095238D01*
X89545238Y-124190476D01*
X89640476Y-124238095D01*
X89830952Y-124285714D01*
X89973809Y-124285714D01*
X90164285Y-124238095D01*
X90259523Y-124190476D01*
X90354761Y-124095238D01*
X90402380Y-123952380D01*
X90402380Y-123714285D01*
X90402380Y-124714285D02*
X89735714Y-124714285D01*
X89402380Y-124714285D02*
X89450000Y-124666666D01*
X89497619Y-124714285D01*
X89450000Y-124761904D01*
X89402380Y-124714285D01*
X89497619Y-124714285D01*
X89735714Y-125190476D02*
X90735714Y-125190476D01*
X89783333Y-125190476D02*
X89735714Y-125285714D01*
X89735714Y-125476190D01*
X89783333Y-125571428D01*
X89830952Y-125619047D01*
X89926190Y-125666666D01*
X90211904Y-125666666D01*
X90307142Y-125619047D01*
X90354761Y-125571428D01*
X90402380Y-125476190D01*
X90402380Y-125285714D01*
X90354761Y-125190476D01*
X90354761Y-126047619D02*
X90402380Y-126142857D01*
X90402380Y-126333333D01*
X90354761Y-126428571D01*
X90259523Y-126476190D01*
X90211904Y-126476190D01*
X90116666Y-126428571D01*
X90069047Y-126333333D01*
X90069047Y-126190476D01*
X90021428Y-126095238D01*
X89926190Y-126047619D01*
X89878571Y-126047619D01*
X89783333Y-126095238D01*
X89735714Y-126190476D01*
X89735714Y-126333333D01*
X89783333Y-126428571D01*
X89735714Y-126809523D02*
X90402380Y-127000000D01*
X89926190Y-127190476D01*
X90402380Y-127380952D01*
X89735714Y-127571428D01*
X90402380Y-127952380D02*
X89735714Y-127952380D01*
X89402380Y-127952380D02*
X89450000Y-127904761D01*
X89497619Y-127952380D01*
X89450000Y-128000000D01*
X89402380Y-127952380D01*
X89497619Y-127952380D01*
X89735714Y-128285714D02*
X89735714Y-128666666D01*
X89402380Y-128428571D02*
X90259523Y-128428571D01*
X90354761Y-128476190D01*
X90402380Y-128571428D01*
X90402380Y-128666666D01*
X90354761Y-129428571D02*
X90402380Y-129333333D01*
X90402380Y-129142857D01*
X90354761Y-129047619D01*
X90307142Y-129000000D01*
X90211904Y-128952380D01*
X89926190Y-128952380D01*
X89830952Y-129000000D01*
X89783333Y-129047619D01*
X89735714Y-129142857D01*
X89735714Y-129333333D01*
X89783333Y-129428571D01*
X90402380Y-129857142D02*
X89402380Y-129857142D01*
X90402380Y-130285714D02*
X89878571Y-130285714D01*
X89783333Y-130238095D01*
X89735714Y-130142857D01*
X89735714Y-130000000D01*
X89783333Y-129904761D01*
X89830952Y-129857142D01*
D12*
X88950000Y-127990000D02*
X88950000Y-129640000D01*
X78670000Y-129640000D02*
X78670000Y-124340000D01*
X88950000Y-129640000D02*
X78670000Y-129640000D01*
X88950000Y-124340000D02*
X88950000Y-125990000D01*
X78670000Y-124340000D02*
X88950000Y-124340000D01*
X88950000Y-125990000D02*
G75*
G03*
X88950000Y-127990000I0J-1000000D01*
G01*
%TD*%
M02*
